<svg xmlns="http://www.w3.org/2000/svg" xmlns:xlink="http://www.w3.org/1999/xlink" width="400" zoomAndPan="magnify" viewBox="0 0 300 74.999997" height="100" preserveAspectRatio="xMidYMid meet" version="1.0"><defs><g/></defs><path stroke-linecap="round" transform="matrix(6.744035, 0, 0, 6.749999, 4.172468, 67.499993)" fill="none" stroke-linejoin="miter" d="M 0.499775 0.000000964815 L 5.394726 0.000000964815 " stroke="#ff6371" stroke-width="1" stroke-opacity="1" stroke-miterlimit="4"/><g fill="#ff6371" fill-opacity="1"><g transform="translate(45.812102, 70.438768)"><g><path d="M 30 -42.90625 C 35.394531 -42.90625 39.679688 -41.34375 42.859375 -38.21875 C 46.046875 -35.09375 47.640625 -30.507812 47.640625 -24.46875 L 47.640625 0 L 39.9375 0 L 39.9375 -23.578125 C 39.9375 -27.691406 38.945312 -30.789062 36.96875 -32.875 C 34.988281 -34.96875 32.15625 -36.015625 28.46875 -36.015625 C 24.300781 -36.015625 21.015625 -34.796875 18.609375 -32.359375 C 16.203125 -29.929688 15 -26.441406 15 -21.890625 L 15 0 L 7.296875 0 L 7.296875 -42.5 L 14.671875 -42.5 L 14.671875 -36.09375 C 16.222656 -38.28125 18.320312 -39.960938 20.96875 -41.140625 C 23.613281 -42.316406 26.625 -42.90625 30 -42.90625 Z M 30 -42.90625 "/></g></g></g><g fill="#ff6371" fill-opacity="1"><g transform="translate(100.43241, 70.438768)"><g><path d="M 38.8125 -6.34375 L 38.8125 0 L 3.203125 0 L 3.203125 -4.96875 L 28.3125 -36.171875 L 3.6875 -36.171875 L 3.6875 -42.5 L 38.171875 -42.5 L 38.171875 -37.453125 L 13.078125 -6.34375 Z M 38.8125 -6.34375 "/></g></g></g><g fill="#ff6371" fill-opacity="1"><g transform="translate(142.219747, 70.438768)"><g><path d="M 25.5 0.484375 C 21.28125 0.484375 17.484375 -0.453125 14.109375 -2.328125 C 10.742188 -4.203125 8.113281 -6.78125 6.21875 -10.0625 C 4.320312 -13.351562 3.375 -17.082031 3.375 -21.25 C 3.375 -25.425781 4.320312 -29.15625 6.21875 -32.4375 C 8.113281 -35.726562 10.742188 -38.296875 14.109375 -40.140625 C 17.484375 -41.984375 21.28125 -42.90625 25.5 -42.90625 C 29.726562 -42.90625 33.507812 -41.984375 36.84375 -40.140625 C 40.1875 -38.296875 42.804688 -35.726562 44.703125 -32.4375 C 46.609375 -29.15625 47.5625 -25.425781 47.5625 -21.25 C 47.5625 -17.082031 46.609375 -13.351562 44.703125 -10.0625 C 42.804688 -6.78125 40.1875 -4.203125 36.84375 -2.328125 C 33.507812 -0.453125 29.726562 0.484375 25.5 0.484375 Z M 25.5 -6.25 C 28.226562 -6.25 30.675781 -6.878906 32.84375 -8.140625 C 35.007812 -9.398438 36.707031 -11.164062 37.9375 -13.4375 C 39.164062 -15.707031 39.78125 -18.3125 39.78125 -21.25 C 39.78125 -24.195312 39.164062 -26.804688 37.9375 -29.078125 C 36.707031 -31.347656 35.007812 -33.097656 32.84375 -34.328125 C 30.675781 -35.554688 28.226562 -36.171875 25.5 -36.171875 C 22.78125 -36.171875 20.335938 -35.554688 18.171875 -34.328125 C 16.003906 -33.097656 14.289062 -31.347656 13.03125 -29.078125 C 11.769531 -26.804688 11.140625 -24.195312 11.140625 -21.25 C 11.140625 -18.3125 11.769531 -15.707031 13.03125 -13.4375 C 14.289062 -11.164062 16.003906 -9.398438 18.171875 -8.140625 C 20.335938 -6.878906 22.78125 -6.25 25.5 -6.25 Z M 25.5 -6.25 "/></g></g></g><g fill="#616d64" fill-opacity="1"><g transform="translate(193.148871, 70.438768)"><g><path d="M 33.53125 0.640625 C 27.914062 0.640625 22.847656 -0.597656 18.328125 -3.078125 C 13.804688 -5.566406 10.257812 -8.988281 7.6875 -13.34375 C 5.125 -17.707031 3.84375 -22.617188 3.84375 -28.078125 C 3.84375 -33.523438 5.125 -38.425781 7.6875 -42.78125 C 10.257812 -47.144531 13.816406 -50.566406 18.359375 -53.046875 C 22.910156 -55.535156 27.992188 -56.78125 33.609375 -56.78125 C 37.992188 -56.78125 42.003906 -56.046875 45.640625 -54.578125 C 49.273438 -53.109375 52.375 -50.929688 54.9375 -48.046875 L 49.71875 -42.984375 C 45.5 -47.421875 40.234375 -49.640625 33.921875 -49.640625 C 29.753906 -49.640625 25.984375 -48.703125 22.609375 -46.828125 C 19.242188 -44.960938 16.613281 -42.382812 14.71875 -39.09375 C 12.820312 -35.8125 11.875 -32.140625 11.875 -28.078125 C 11.875 -24.003906 12.820312 -20.320312 14.71875 -17.03125 C 16.613281 -13.75 19.242188 -11.171875 22.609375 -9.296875 C 25.984375 -7.429688 29.753906 -6.5 33.921875 -6.5 C 40.179688 -6.5 45.445312 -8.742188 49.71875 -13.234375 L 54.9375 -8.1875 C 52.375 -5.289062 49.257812 -3.09375 45.59375 -1.59375 C 41.925781 -0.101562 37.90625 0.640625 33.53125 0.640625 Z M 33.53125 0.640625 "/></g></g></g><g fill="#616d64" fill-opacity="1"><g transform="translate(251.137833, 70.438768)"><g><path d="M 25.5 0.484375 C 21.28125 0.484375 17.484375 -0.453125 14.109375 -2.328125 C 10.742188 -4.203125 8.113281 -6.78125 6.21875 -10.0625 C 4.320312 -13.351562 3.375 -17.082031 3.375 -21.25 C 3.375 -25.425781 4.320312 -29.15625 6.21875 -32.4375 C 8.113281 -35.726562 10.742188 -38.296875 14.109375 -40.140625 C 17.484375 -41.984375 21.28125 -42.90625 25.5 -42.90625 C 29.726562 -42.90625 33.507812 -41.984375 36.84375 -40.140625 C 40.1875 -38.296875 42.804688 -35.726562 44.703125 -32.4375 C 46.609375 -29.15625 47.5625 -25.425781 47.5625 -21.25 C 47.5625 -17.082031 46.609375 -13.351562 44.703125 -10.0625 C 42.804688 -6.78125 40.1875 -4.203125 36.84375 -2.328125 C 33.507812 -0.453125 29.726562 0.484375 25.5 0.484375 Z M 25.5 -6.25 C 28.226562 -6.25 30.675781 -6.878906 32.84375 -8.140625 C 35.007812 -9.398438 36.707031 -11.164062 37.9375 -13.4375 C 39.164062 -15.707031 39.78125 -18.3125 39.78125 -21.25 C 39.78125 -24.195312 39.164062 -26.804688 37.9375 -29.078125 C 36.707031 -31.347656 35.007812 -33.097656 32.84375 -34.328125 C 30.675781 -35.554688 28.226562 -36.171875 25.5 -36.171875 C 22.78125 -36.171875 20.335938 -35.554688 18.171875 -34.328125 C 16.003906 -33.097656 14.289062 -31.347656 13.03125 -29.078125 C 11.769531 -26.804688 11.140625 -24.195312 11.140625 -21.25 C 11.140625 -18.3125 11.769531 -15.707031 13.03125 -13.4375 C 14.289062 -11.164062 16.003906 -9.398438 18.171875 -8.140625 C 20.335938 -6.878906 22.78125 -6.25 25.5 -6.25 Z M 25.5 -6.25 "/></g></g></g><path stroke-linecap="round" transform="matrix(6.744035, 0, 0, 6.749999, 4.172468, 42.183399)" fill="none" stroke-linejoin="miter" d="M 0.499775 0.0000288881 L 5.394726 0.0000288881 " stroke="#ff6371" stroke-width="1" stroke-opacity="1" stroke-miterlimit="4"/><path stroke-linecap="round" transform="matrix(6.744035, 0, 0, 6.749999, 4.172468, 14.505796)" fill="none" stroke-linejoin="miter" d="M 0.499775 -0.000279971 L 5.394726 -0.000279971 " stroke="#ff6371" stroke-width="1" stroke-opacity="1" stroke-miterlimit="4"/></svg>